<?xml version="1.0" encoding="utf-8"?>
<svg xmlns="http://www.w3.org/2000/svg" xmlns:xlink="http://www.w3.org/1999/xlink" version= "1.1" width="300px" height="300px" viewBox="210 622 300 300">
<g id="layer1">
<g style="fill:rgb(32,33,34); fill-opacity:1.0; stroke-linejoin: miter">
<path d="M297.43958,698.31055L297.43958,698.31055L431.98364,832.7118C434.41504,835.1406,434.4171,839.08057,431.98828,841.51196C429.55945,843.94336,425.61948,843.9455,423.18808,841.51666L423.18808,841.51666L288.64404,707.1154C286.21265,704.68665,286.21057,700.74664,288.63937,698.31525C291.0682,695.88385,295.00818,695.8818,297.43958,698.31055 Z"/>
</g>
</g>
<g id="layer2">
<g style="fill:rgb(32,33,34); fill-opacity:1.0; stroke-linejoin: miter">
<path d="M343.90057,746.98914L343.90057,746.9901Q334.73853,755.05835,334.35373,768.02594Q334.65353,779.9031,342.5402,787.78973Q350.42688,795.6764,362.30383,795.97614Q374.61176,795.6436,382.5895,787.2588Q378.30545,783.4687,373.95483,778.2606Q369.47528,783.31934,362.30392,783.5308Q355.7153,783.36456,351.3404,778.98956Q346.9654,774.61456,346.79913,768.026Q346.9791,761.22815,351.60013,756.8129Q349.10464,753.7957,347.793,751.36Q345.70087,749.07806,343.90057,746.98914 Z"/>
</g>
<g style="fill:rgb(0,0,0); fill-opacity:1.0; stroke-linejoin: miter">
</g>
</g>
<g id="layer3">
<g style="fill:rgb(32,33,34); fill-opacity:1.0; stroke-linejoin: miter">
<path d="M315.2366,732.5588L315.2366,732.5588C304.82,737.9862,294.88696,743.1747,285.4481,750.1461L285.4481,750.1461C275.9677,757.1481,266.86084,766.03815,257.3737,775.3152L257.46637,766.5095L257.52612,766.5705L257.52557,766.56995C267.9576,777.2069,277.9492,787.35803,292.88824,796.7622L292.88824,796.7622C308.02954,806.2937,327.96204,814.86725,346.50647,816.7703L346.50647,816.7703C352.042,817.3384,357.52878,817.31946,363.01382,816.87476L363.0138,816.87476C375.81573,815.8368,388.36862,812.5154,401.55524,809.008L399.69995,820.1972L390.08105,813.7765L396.95398,813.80066C388.1479,819.58954,377.87195,826.4817,364.52905,827.5635L364.52905,827.5635C362.58124,827.7214,360.57788,827.7561,358.51257,827.65173L358.5127,827.65173C342.81952,826.8593,323.14142,817.93536,312.56793,804.1839L312.56793,804.1839C301.7431,790.1056,301.09702,771.9568,303.69653,759.14075L303.69653,759.14075C306.38995,745.8618,312.73267,737.3567,318.2946,729.81793C320.3349,727.0524,324.23077,726.4646,326.99628,728.5049C329.76178,730.5452,330.34964,734.4411,328.30933,737.2066L328.30933,737.2066C322.75824,744.73065,317.98813,751.28796,315.89352,761.61475L315.89352,761.61475C313.70505,772.4043,314.59592,786.40393,322.43402,796.5979L322.43402,796.5979C330.52344,807.1187,346.6343,814.5907,359.14035,815.2223L359.1405,815.2223C360.65857,815.29895,362.11737,815.2728,363.52332,815.1588L363.52335,815.1588C373.2188,814.37274,380.9334,809.4385,390.1176,803.4011C392.20566,802.02844,394.91226,802.03796,396.99054,803.4253L396.99054,803.4253L406.60947,809.84607C408.64343,811.20374,409.6936,813.62695,409.29358,816.0395C408.89355,818.452,407.1175,820.4066,404.75418,821.0352L404.75418,821.0352C391.75458,824.4928,378.12213,828.136,364.01953,829.2794L364.0195,829.2794C357.89368,829.776,351.6365,829.80756,345.23593,829.1507L345.23593,829.1507C324.1865,826.99054,302.41736,817.4668,286.25815,807.2945L286.25815,807.2945C269.95642,797.0325,259.06796,785.91675,248.6402,775.2841L248.63966,775.28357L248.57991,775.22266C247.42377,774.04376,246.78351,772.4528,246.8008,770.80096C246.81808,769.1492,247.49147,767.5719,248.67258,766.417L248.67258,766.417C258.02423,757.27246,267.75482,747.7421,278.05426,740.1352L278.05423,740.1352C288.39465,732.498,299.1822,726.8903,309.48587,721.5217C312.5337,719.93365,316.29175,721.11707,317.87976,724.16486C319.46777,727.21265,318.2844,730.9707,315.2366,732.5588 Z"/>
</g>
<g style="fill:rgb(32,33,34); fill-opacity:1.0; stroke-linejoin: miter">
<path d="M465.40027,776.025L465.40027,776.025L436.90195,759.2567L436.90198,759.2567L427.80728,753.90546L431.3009,742.3288L431.3009,742.3288C432.29462,742.3828,433.26086,742.67444,434.1186,743.1791L434.1186,743.1791L471.7116,765.2987L464.71948,775.56116C442.03445,757.7973,420.23688,740.7827,400.28952,732.0698L400.28952,732.0698C380.6928,723.5102,362.64133,722.89514,343.39465,722.29663L347.5843,711.30707L354.03543,716.7118L350.04047,715.25903C361.8608,715.2614,375.66473,715.137,387.5201,721.3057L387.5201,721.3057C399.31592,727.44336,408.64276,739.42505,412.48767,750.1141L412.48767,750.1141C416.51245,761.3032,414.48987,770.9822,412.90594,778.9729L411.19925,773.36L434.27026,796.4011L426.69446,795.45447C433.5802,791.36316,440.07742,787.49365,446.16644,782.749L446.16644,782.749C452.2739,777.99005,458.07214,772.2722,464.18256,766.2352L465.40027,776.025 M471.71164,765.2987C473.37692,766.27856,474.49255,767.9764,474.73105,769.89374C474.96954,771.81116,474.30383,773.7305,472.92938,775.0885L472.92938,775.0885C466.92255,781.0231,460.60236,787.27795,453.8159,792.56604L453.81586,792.56604C447.00967,797.86945,439.83783,802.1215,433.05157,806.1537C430.6067,807.6063,427.48804,807.2167,425.47577,805.20703L425.47577,805.20703L402.4048,782.16595C400.93427,780.6974,400.294,778.5917,400.69806,776.5531L400.69806,776.5531C402.3181,768.38,403.49945,761.8955,400.7769,754.32654L400.7769,754.32654C397.87442,746.2575,390.5027,736.88696,381.77557,732.34595L381.77554,732.34595C373.10797,727.836,362.56488,727.7069,350.03796,727.70435C348.5771,727.7041,347.16284,727.1898,346.043,726.2516L346.043,726.2516L339.59186,720.8469C337.55872,719.14355,336.82874,716.33875,337.7736,713.86035C338.71844,711.38196,341.13037,709.7749,343.78146,709.8573L343.78146,709.8573C362.89935,710.4518,383.21158,711.0296,405.2711,720.665L405.2711,720.665C426.97974,730.14716,450.1297,748.32935,472.39246,765.7626C474.97235,767.78284,475.54352,771.45764,473.6985,774.16565C471.85345,776.87366,468.2245,777.68677,465.4003,776.025L465.4003,776.025L427.80728,753.90546L430.62494,754.7558L430.62494,754.7558C426.59857,754.53674,423.84064,750.60486,425.0056,746.7445C426.1706,742.88416,430.64325,741.1343,434.1186,743.1791L434.1186,743.1791L443.21326,748.5304L443.2133,748.5304L471.71164,765.2987 Z"/>
</g>
</g>
<g id="layer4">
<g style="fill:rgb(32,33,34); fill-opacity:1.0; stroke-linejoin: miter">
<path d="M412.3973,733.94037L412.41656,734.0891L412.4336,734.23627L412.44833,734.38184L412.46085,734.52576L412.4711,734.6681L412.4791,734.8088L412.48486,734.94794L412.48834,735.0854L412.4896,735.2213L412.40167,735.2418L412.4113,735.1352L412.4191,735.02814L412.42505,734.9208L412.42914,734.813L412.43137,734.7049L412.43167,734.5965L412.4301,734.4878L412.4266,734.3788L412.42117,734.26953L412.41382,734.16003L412.40448,734.0503L412.3932,733.94037L412.3973,733.94037 M449.7494,759.8716L449.7494,759.8717L450.5045,760.3813L451.13477,760.94824L451.64023,761.5726L452.02087,762.25433L452.27667,762.99347L452.40765,763.79004L452.41385,764.644L452.2952,765.55536L452.04962,766.5243Q452.31403,765.5647,452.26242,764.54474L452.22028,764.0818L452.14444,763.6269L452.0359,763.1817L451.89557,762.7477Q451.58124,761.8878,451.03586,761.15607Q450.76413,760.7918,450.44043,760.46906L450.10468,760.1583L449.74487,759.8716L449.7494,759.8716 M451.26294,768.2806L451.1985,768.3781Q451.06772,768.5718,450.92215,768.7545Q450.84937,768.84595,450.7729,768.9346Q450.6964,769.02325,450.61624,769.1092L450.6112,769.1093Q450.79114,768.91516,450.9531,768.70764Q451.08624,768.53357,451.1104,768.49713Q451.23587,768.318,451.25845,768.2806L451.26294,768.2806 M406.25504,728.33014L406.14142,728.3312Q399.2082,728.7083,400.06863,735.6392Q400.19427,737.19543,401.84418,739.0608Q403.29947,740.3051,404.13852,740.4938L407.40228,742.99365Q406.95496,745.9044,407.84613,754.977Q409.87616,765.7131,410.46002,769.49255Q409.3118,771.54895,409.71872,774.3142L410.0917,775.9037L411.9548,781.5336Q416.91272,791.1242,419.67297,793.691Q426.23334,797.76294,432.7566,797.95276Q436.2321,798.07007,439.80408,796.0939L451.10025,784.99744Q452.85892,783.4461,458.07217,780.4927L461.9743,777.13153Q463.7539,775.23865,464.09708,773.4198Q464.31683,772.46106,464.2739,771.422Q463.93665,768.75415,463.55396,768.1243Q462.47934,765.239,459.66833,763.6888L457.8025,762.75494L449.5382,759.7255L436.058,751.69745Q435.64194,751.4203,434.04297,750.8466L427.16876,743.55273L417.6311,735.24396L412.80472,731.44574L409.96793,729.44354Q408.52286,728.46063,406.25504,728.33014"/>
</g>
<g style="fill:rgb(32,33,34); fill-opacity:1.0; stroke-linejoin: miter">
<path d="M347.0768,762.4587C345.29367,762.4587,343.5235,763.2212,342.2928,764.6982C340.09283,767.33844,340.4498,771.2622,343.0901,773.46216Q343.19058,773.5459,343.29517,773.6292L343.29666,773.63043Q344.63882,774.699,347.14233,776.0168L347.13885,776.0168Q348.02136,776.6884,349.22217,777.4185L349.2187,777.4185Q349.32593,777.5117,349.48276,777.65326L349.47928,777.65326Q351.88943,780.1254,354.3065,783.71326C354.53705,784.0555,354.80112,784.374,355.0947,784.66394Q356.90784,786.45465,357.88562,787.2202L357.8858,787.2204Q358.54034,787.73285,359.1554,788.0608C360.08786,788.558,361.09,788.7938,362.0778,788.7938C364.30243,788.7938,366.4543,787.5977,367.5741,785.4977C369.10422,782.62805,368.1588,779.0988,365.48322,777.3577L365.47955,777.3577Q365.11862,777.0581,364.2769,776.2379L364.27325,776.2379Q361.3035,771.91266,358.19116,768.7623C358.11264,768.68286,358.0321,768.60565,357.94943,768.5305Q357.27353,767.91626,356.81683,767.55286L356.8168,767.55286Q356.55988,767.3484,356.32446,767.18384L356.3231,767.18286C356.19476,767.0932,356.06323,767.00854,355.92853,766.92883Q354.93314,766.3398,354.58963,766.04517C354.21707,765.7256,353.80804,765.4513,353.37103,765.22784Q351.5774,764.3108,351.05713,763.9009L351.05682,763.9009C349.89355,762.93164,348.48117,762.4587,347.0768,762.4587 Z"/>
</g>
<g style="fill:rgb(32,33,34); fill-opacity:1.0; stroke-linejoin: miter">
<path d="M311.3294,730.4179L310.93976,730.43005Q308.1777,730.5746,305.95966,733.205Q303.1365,731.9485,299.66324,733.9985Q297.86737,735.1768,295.28534,738.51294Q290.7846,739.76544,286.96732,742.244Q283.4912,744.6438,280.33978,749.3475Q279.01874,749.6975,278.37823,750.15607Q277.6918,751.33813,266.24237,758.6453Q261.53787,762.849,260.18707,765.5571Q258.451,769.88245,258.8917,773.2703Q259.21005,776.8005,261.21576,779.9625Q261.6012,781.1126,270.15146,789.94305L271.17563,790.6171L281.19177,795.8154Q283.61874,796.6293,285.7647,795.70654L300.26215,805.80023Q306.24582,814.57025,308.972,816.30273Q311.61307,818.4202,314.92365,818.4115Q322.4074,817.5501,321.22794,809.169Q320.33923,806.3304,318.7077,804.61005Q316.51147,802.1257,309.79315,797.3321L308.92477,795.5173Q305.25067,788.6392,304.0487,771.0261Q303.92834,768.664,304.18933,765.1712Q305.96506,759.24786,308.17398,753.06464Q308.62918,751.3885,308.87808,749.7863Q312.0188,744.4543,316.22607,740.48236Q317.26025,739.1404,317.48853,737.5339Q317.6233,733.8606,315.79996,732.3115Q313.86877,730.4195,311.3294,730.4179"/>
</g>
</g>
</svg>